<svg xmlns="http://www.w3.org/2000/svg" xmlns:xlink="http://www.w3.org/1999/xlink" width="500" zoomAndPan="magnify" viewBox="0 0 375 374.999991" height="500" preserveAspectRatio="xMidYMid meet" version="1.0"><defs><g/></defs><path fill="#000000" d="M 156.738281 175.960938 L 134.753906 176.671875 C 134.753906 176.671875 138.632812 172.070312 143.933594 171.140625 C 150.492188 169.988281 155.527344 172.246094 156.738281 175.960938 Z M 77.707031 186.632812 C 79.136719 185.761719 74.363281 184.082031 73.34375 183.703125 C 72.585938 183.414062 73.027344 182.433594 73.546875 182.433594 C 74.035156 182.433594 83.308594 182.175781 85.988281 181.832031 C 88.707031 181.480469 91.5 179.367188 91.5 179.367188 C 91.5 179.367188 114.601562 162.339844 128.867188 157.195312 C 142.03125 152.449219 155.191406 151.371094 178.46875 152.425781 C 196.28125 153.238281 211.535156 158.601562 211.535156 158.601562 C 188.835938 152.988281 169.21875 154.394531 162.585938 155.140625 C 155.957031 155.890625 157.824219 157.757812 158.195312 158.507812 C 158.570312 159.257812 172.957031 178.246094 172.957031 178.246094 C 172.957031 178.246094 195.09375 176.84375 226.015625 176.65625 C 256.933594 176.46875 304.859375 181.894531 304.859375 181.894531 C 306.484375 183.804688 308.378906 185.527344 310.304688 187.042969 C 312.566406 188.953125 315.546875 191.164062 320.082031 194.050781 C 320.171875 194.109375 320.136719 194.246094 320.03125 194.246094 L 278.210938 194.246094 C 277.222656 194.246094 276.246094 194.046875 275.34375 193.652344 C 274.261719 193.1875 273.253906 192.753906 272.355469 192.375 C 264.820312 189.195312 249.484375 182.398438 241.785156 179.855469 C 241.492188 179.753906 241.199219 179.664062 240.910156 179.574219 C 240.769531 179.53125 240.621094 179.484375 240.484375 179.441406 C 240.472656 179.4375 240.46875 179.4375 240.457031 179.4375 C 237.292969 178.515625 234.453125 178.203125 232.410156 178.738281 C 225.25 180.597656 231.226562 188.1875 231.226562 188.1875 C 236.019531 194.25 249.289062 199.675781 249.289062 199.675781 C 243.496094 199.925781 224.703125 188.1875 212.914062 188.1875 C 222.21875 195.394531 225.816406 208.328125 225.558594 214.710938 C 219.269531 196.1875 207.933594 189.824219 197.46875 189.824219 C 187.003906 189.824219 178.847656 193.507812 174.117188 206.601562 C 174.503906 199.9375 177.128906 192.828125 182.566406 188.191406 L 91.78125 188.191406 L 91.78125 188.207031 L 81.691406 188.207031 C 85.914062 188.207031 91.675781 195.664062 92.667969 202.113281 L 92.8125 204.382812 C 90.988281 196.476562 86.011719 190.800781 80.144531 190.800781 C 75.949219 190.800781 72.199219 193.710938 69.746094 198.265625 C 73.097656 190.675781 76.566406 187.324219 77.707031 186.632812 Z M 103.460938 180.207031 C 113.925781 180.769531 167.355469 178.726562 167.355469 178.726562 C 167.355469 178.726562 156.609375 164.023438 154.742188 161.6875 C 152.871094 159.347656 149.789062 154.855469 141.847656 156.351562 C 133.90625 157.847656 123.164062 161.402344 112.984375 167.390625 C 102.804688 173.382812 92.996094 179.648438 103.460938 180.207031 Z M 121.066406 191.386719 L 172.785156 193.058594 C 172.914062 194.15625 173.050781 195.171875 173.171875 196.011719 C 173.886719 194.375 174.765625 192.796875 175.824219 191.34375 Z M 121.066406 191.386719 " fill-opacity="1" fill-rule="nonzero"/><g fill="#ff0000" fill-opacity="1"><g transform="translate(60.336256, 222.584796)"><g><path d="M 16.777344 -5.429688 C 15.605469 -5.789062 15.25 -4.097656 15.3125 -2.144531 C 14.371094 -1.917969 12.09375 -1.59375 6.730469 -1.5625 C 6.957031 -2.40625 7.085938 -3.578125 7.085938 -5.167969 C 7.085938 -7.707031 6.988281 -9.589844 6.988281 -11.542969 C 6.988281 -14.207031 7.054688 -17.75 7.25 -20.027344 L 9.65625 -20.546875 L 9.265625 -21.523438 L 0.976562 -21.523438 C 0.519531 -20.839844 2.015625 -20.351562 3.640625 -20.058594 C 3.804688 -17.003906 3.902344 -13.914062 3.902344 -10.792969 C 3.902344 -3.738281 3.867188 -1.039062 0.941406 -0.714844 L 1.203125 0 L 16.972656 0 Z M 16.777344 -5.429688 "/></g></g></g><g fill="#ff0000" fill-opacity="1"><g transform="translate(78.931051, 222.584796)"><g><path d="M 19.117188 -1.269531 C 16.515625 -8.0625 14.4375 -15.054688 12.808594 -21.976562 C 11.605469 -21.75 10.304688 -21.328125 9.589844 -20.808594 C 8.550781 -16.453125 6.113281 -9.949219 3.835938 -4.550781 C 2.535156 -1.496094 2.179688 -1.300781 0.164062 -0.84375 L 0.421875 0 L 6.925781 0 C 7.445312 -0.617188 6.144531 -1.105469 4.648438 -1.367188 C 5.234375 -3.480469 5.917969 -5.59375 6.664062 -7.738281 C 7.867188 -7.835938 9.007812 -7.902344 10.175781 -7.902344 C 11.3125 -7.902344 12.453125 -7.835938 13.6875 -7.738281 C 14.371094 -5.265625 14.824219 -3.21875 14.824219 -2.375 C 14.824219 -1.429688 14.242188 -1.203125 12.550781 -0.84375 L 12.808594 0 L 21.457031 0 C 21.945312 -0.617188 20.546875 -1.007812 19.117188 -1.269531 Z M 10.175781 -9.136719 C 9.167969 -9.136719 8.191406 -9.167969 7.183594 -9.234375 L 9.527344 -15.832031 C 9.917969 -16.9375 10.207031 -17.816406 10.304688 -18.757812 C 11.21875 -16.09375 12.355469 -12.453125 13.265625 -9.234375 C 12.191406 -9.167969 11.183594 -9.136719 10.175781 -9.136719 Z M 10.175781 -9.136719 "/></g></g></g><g fill="#ff0000" fill-opacity="1"><g transform="translate(101.654336, 222.584796)"><g><path d="M 21.394531 -21.523438 L 14.304688 -21.523438 L 13.980469 -20.742188 L 14.921875 -20.515625 C 16.125 -20.125 16.386719 -19.574219 16.027344 -18.175781 L 13.296875 -8.03125 C 12.648438 -5.558594 12.191406 -3.738281 11.964844 -2.601562 C 10.078125 -7.867188 8.289062 -14.207031 6.957031 -19.929688 C 8.289062 -20.191406 10.175781 -20.742188 9.65625 -21.523438 L 0.617188 -21.523438 L 0.292969 -20.742188 C 2.667969 -20.222656 3.25 -19.769531 3.707031 -18.175781 C 4.84375 -14.046875 7.804688 -4.910156 9.070312 0.226562 C 10.339844 0.226562 11.835938 -0.164062 12.746094 -0.488281 C 13.851562 -5.167969 16.484375 -14.371094 18.53125 -19.863281 C 19.800781 -20.125 21.816406 -20.679688 21.394531 -21.523438 Z M 21.394531 -21.523438 "/></g></g></g><g fill="#ff0000" fill-opacity="1"><g transform="translate(124.150069, 222.584796)"><g><path d="M 19.117188 -1.269531 C 16.515625 -8.0625 14.4375 -15.054688 12.808594 -21.976562 C 11.605469 -21.75 10.304688 -21.328125 9.589844 -20.808594 C 8.550781 -16.453125 6.113281 -9.949219 3.835938 -4.550781 C 2.535156 -1.496094 2.179688 -1.300781 0.164062 -0.84375 L 0.421875 0 L 6.925781 0 C 7.445312 -0.617188 6.144531 -1.105469 4.648438 -1.367188 C 5.234375 -3.480469 5.917969 -5.59375 6.664062 -7.738281 C 7.867188 -7.835938 9.007812 -7.902344 10.175781 -7.902344 C 11.3125 -7.902344 12.453125 -7.835938 13.6875 -7.738281 C 14.371094 -5.265625 14.824219 -3.21875 14.824219 -2.375 C 14.824219 -1.429688 14.242188 -1.203125 12.550781 -0.84375 L 12.808594 0 L 21.457031 0 C 21.945312 -0.617188 20.546875 -1.007812 19.117188 -1.269531 Z M 10.175781 -9.136719 C 9.167969 -9.136719 8.191406 -9.167969 7.183594 -9.234375 L 9.527344 -15.832031 C 9.917969 -16.9375 10.207031 -17.816406 10.304688 -18.757812 C 11.21875 -16.09375 12.355469 -12.453125 13.265625 -9.234375 C 12.191406 -9.167969 11.183594 -9.136719 10.175781 -9.136719 Z M 10.175781 -9.136719 "/></g></g></g><g fill="#ff0000" fill-opacity="1"><g transform="translate(146.873353, 222.584796)"><g><path d="M 6.761719 -21.523438 L 1.039062 -21.523438 C 0.457031 -20.679688 1.984375 -20.351562 3.769531 -20.253906 C 3.933594 -17.101562 4.03125 -13.980469 4.03125 -10.792969 C 4.03125 -3.738281 3.835938 -1.039062 0.910156 -0.714844 L 1.171875 0 L 3.023438 0 C 4.324219 0 6.078125 0.164062 8.582031 0.164062 C 15.605469 0.164062 20.222656 -3.347656 20.222656 -10.792969 C 20.222656 -19.3125 15.054688 -21.523438 6.761719 -21.523438 Z M 14.304688 -2.472656 C 13.136719 -1.917969 11.769531 -1.625 10.144531 -1.625 C 9.167969 -1.625 8.128906 -1.691406 6.925781 -1.886719 C 7.121094 -2.730469 7.21875 -3.835938 7.21875 -5.398438 C 7.21875 -7.707031 7.121094 -9.589844 7.121094 -11.542969 C 7.121094 -14.304688 7.21875 -18.042969 7.414062 -20.320312 C 7.769531 -20.351562 8.160156 -20.351562 8.519531 -20.351562 C 13.621094 -20.351562 16.777344 -17.460938 16.777344 -10.371094 C 16.777344 -6.601562 15.832031 -4.03125 14.304688 -2.472656 Z M 14.304688 -2.472656 "/></g></g></g><g fill="#ff0000" fill-opacity="1"><g transform="translate(169.759183, 222.584796)"><g><path d="M 16.839844 -4.78125 C 15.898438 -5.167969 15.445312 -3.769531 15.445312 -2.113281 C 14.5 -1.917969 12.226562 -1.59375 6.761719 -1.5625 C 6.988281 -2.40625 7.121094 -3.578125 7.121094 -5.167969 C 7.121094 -6.988281 7.054688 -8.484375 7.054688 -9.917969 L 13.234375 -9.917969 C 13.816406 -10.535156 14.144531 -11.378906 14.144531 -12.03125 C 11.835938 -11.574219 9.429688 -11.378906 7.023438 -11.347656 L 7.023438 -11.542969 C 7.023438 -14.207031 7.085938 -17.75 7.28125 -20.058594 L 8 -20.058594 C 10.761719 -20.058594 12.484375 -19.832031 14.207031 -19.539062 C 14.304688 -18.175781 14.792969 -16.222656 15.734375 -16.742188 L 15.964844 -21.523438 L 1.007812 -21.523438 C 0.324219 -20.808594 1.917969 -20.351562 3.675781 -20.15625 C 3.835938 -17.070312 3.933594 -13.949219 3.933594 -10.792969 C 3.933594 -3.738281 3.867188 -1.039062 0.910156 -0.714844 L 1.171875 0 L 17.035156 0 Z M 16.839844 -4.78125 "/></g></g></g><g fill="#ff0000" fill-opacity="1"><g transform="translate(189.19918, 222.584796)"><g><path d="M 20.320312 -0.714844 C 18.953125 -0.8125 17.363281 -2.859375 15.636719 -5.332031 C 14.46875 -6.988281 13.621094 -8.875 12.582031 -10.792969 C 15.25 -11.898438 16.222656 -13.949219 16.222656 -16.125 C 16.222656 -18.664062 14.890625 -21.523438 8.550781 -21.523438 L 1.007812 -21.523438 C 0.488281 -20.679688 1.886719 -20.351562 3.707031 -20.253906 C 3.835938 -17.003906 3.933594 -13.851562 3.933594 -10.597656 C 3.933594 -2.992188 3.707031 -1.171875 0.878906 -0.714844 L 1.136719 0 L 9.753906 0 C 10.273438 -0.84375 8.8125 -1.332031 7.25 -1.59375 C 7.023438 -4.390625 6.925781 -7.183594 6.925781 -9.949219 L 7.574219 -9.949219 C 8.289062 -9.949219 8.941406 -9.980469 9.527344 -10.046875 C 10.4375 -8.128906 11.28125 -6.371094 12.0625 -4.941406 C 14.078125 -1.722656 15.734375 0.292969 18.371094 0.292969 C 19.117188 0.292969 20.09375 0.128906 20.546875 -0.0664062 Z M 6.925781 -11.152344 C 6.957031 -14.242188 7.054688 -17.394531 7.25 -20.484375 L 7.964844 -20.484375 C 12.128906 -20.484375 12.90625 -18.078125 12.90625 -15.800781 C 12.90625 -13.199219 11.867188 -11.085938 8.160156 -11.085938 C 7.769531 -11.085938 7.378906 -11.085938 6.925781 -11.152344 Z M 6.925781 -11.152344 "/></g></g></g><g fill="#ff0000" fill-opacity="1"><g transform="translate(210.719679, 222.584796)"><g><path d="M 10.890625 0.457031 C 16.386719 0.457031 21.035156 -3.089844 21.035156 -11.152344 C 21.035156 -17.980469 17.558594 -22.011719 11.933594 -22.011719 C 5.65625 -22.011719 1.722656 -17.167969 1.722656 -10.113281 C 1.722656 -3.089844 5.398438 0.457031 10.890625 0.457031 Z M 12.582031 -1.136719 C 7.804688 -1.136719 5.234375 -5.460938 5.234375 -11.507812 C 5.234375 -14.957031 6.078125 -18.207031 7.707031 -19.863281 C 8.582031 -20.351562 9.363281 -20.546875 10.304688 -20.546875 C 15.183594 -20.546875 17.6875 -15.378906 17.6875 -10.144531 C 17.6875 -6.4375 16.453125 -3.089844 15.539062 -1.886719 C 14.628906 -1.269531 13.394531 -1.136719 12.582031 -1.136719 Z M 12.582031 -1.136719 "/></g></g></g><g fill="#ff0000" fill-opacity="1"><g transform="translate(234.418194, 222.584796)"><g/></g></g><g fill="#ff0000" fill-opacity="1"><g transform="translate(240.139884, 222.584796)"><g><path d="M 7.738281 0.550781 C 12.484375 0.550781 15.28125 -2.308594 15.28125 -5.789062 C 15.28125 -8.617188 13.460938 -11.152344 9.332031 -12.746094 C 6.828125 -13.753906 5.234375 -14.988281 5.234375 -17.363281 C 5.234375 -19.214844 6.242188 -20.125 7.25 -20.582031 C 10.046875 -20.582031 12.03125 -19.34375 13.101562 -16.644531 C 14.109375 -18.109375 14.566406 -19.085938 14.726562 -20.351562 C 13.265625 -21.425781 11.378906 -21.976562 9.332031 -21.976562 C 5.332031 -21.976562 2.375 -19.800781 2.375 -16.417969 C 2.375 -13.6875 4.195312 -11.347656 7.769531 -9.820312 C 11.445312 -8.226562 12.226562 -6.371094 12.226562 -4.648438 C 12.226562 -1.820312 10.113281 -1.171875 8.453125 -1.171875 C 5.527344 -1.171875 3.707031 -3.21875 2.308594 -6.273438 L 1.691406 -5.980469 C 1.367188 -4.585938 1.464844 -2.210938 1.691406 -1.464844 C 3.1875 0 5.625 0.550781 7.738281 0.550781 Z M 7.738281 0.550781 "/></g></g></g><g fill="#ff0000" fill-opacity="1"><g transform="translate(257.759436, 222.584796)"><g><path d="M 0.292969 -21.523438 L 0.292969 -16.710938 C 1.398438 -16.320312 1.949219 -18.566406 2.015625 -19.800781 C 3.609375 -19.960938 5.625 -20.09375 7.769531 -20.125 C 7.902344 -17.101562 8 -14.046875 8 -11.023438 C 8 -7.835938 7.902344 -4.648438 7.738281 -1.464844 L 4.84375 -1.007812 L 5.203125 0 L 14.402344 0 C 15.117188 -0.8125 13.296875 -1.269531 11.410156 -1.527344 C 11.25 -4.617188 11.183594 -7.707031 11.183594 -10.792969 C 11.183594 -13.914062 11.28125 -17.035156 11.410156 -20.125 C 13.523438 -20.09375 15.476562 -19.960938 16.972656 -19.800781 C 17.070312 -18.628906 17.558594 -16.320312 18.695312 -16.710938 L 18.695312 -21.523438 Z M 0.292969 -21.523438 "/></g></g></g><g fill="#ff0000" fill-opacity="1"><g transform="translate(277.589528, 222.584796)"><g><path d="M 19.117188 -1.269531 C 16.515625 -8.0625 14.4375 -15.054688 12.808594 -21.976562 C 11.605469 -21.75 10.304688 -21.328125 9.589844 -20.808594 C 8.550781 -16.453125 6.113281 -9.949219 3.835938 -4.550781 C 2.535156 -1.496094 2.179688 -1.300781 0.164062 -0.84375 L 0.421875 0 L 6.925781 0 C 7.445312 -0.617188 6.144531 -1.105469 4.648438 -1.367188 C 5.234375 -3.480469 5.917969 -5.59375 6.664062 -7.738281 C 7.867188 -7.835938 9.007812 -7.902344 10.175781 -7.902344 C 11.3125 -7.902344 12.453125 -7.835938 13.6875 -7.738281 C 14.371094 -5.265625 14.824219 -3.21875 14.824219 -2.375 C 14.824219 -1.429688 14.242188 -1.203125 12.550781 -0.84375 L 12.808594 0 L 21.457031 0 C 21.945312 -0.617188 20.546875 -1.007812 19.117188 -1.269531 Z M 10.175781 -9.136719 C 9.167969 -9.136719 8.191406 -9.167969 7.183594 -9.234375 L 9.527344 -15.832031 C 9.917969 -16.9375 10.207031 -17.816406 10.304688 -18.757812 C 11.21875 -16.09375 12.355469 -12.453125 13.265625 -9.234375 C 12.191406 -9.167969 11.183594 -9.136719 10.175781 -9.136719 Z M 10.175781 -9.136719 "/></g></g></g><g fill="#ff0000" fill-opacity="1"><g transform="translate(300.312824, 222.584796)"><g><path d="M 20.320312 -0.714844 C 18.953125 -0.8125 17.363281 -2.859375 15.636719 -5.332031 C 14.46875 -6.988281 13.621094 -8.875 12.582031 -10.792969 C 15.25 -11.898438 16.222656 -13.949219 16.222656 -16.125 C 16.222656 -18.664062 14.890625 -21.523438 8.550781 -21.523438 L 1.007812 -21.523438 C 0.488281 -20.679688 1.886719 -20.351562 3.707031 -20.253906 C 3.835938 -17.003906 3.933594 -13.851562 3.933594 -10.597656 C 3.933594 -2.992188 3.707031 -1.171875 0.878906 -0.714844 L 1.136719 0 L 9.753906 0 C 10.273438 -0.84375 8.8125 -1.332031 7.25 -1.59375 C 7.023438 -4.390625 6.925781 -7.183594 6.925781 -9.949219 L 7.574219 -9.949219 C 8.289062 -9.949219 8.941406 -9.980469 9.527344 -10.046875 C 10.4375 -8.128906 11.28125 -6.371094 12.0625 -4.941406 C 14.078125 -1.722656 15.734375 0.292969 18.371094 0.292969 C 19.117188 0.292969 20.09375 0.128906 20.546875 -0.0664062 Z M 6.925781 -11.152344 C 6.957031 -14.242188 7.054688 -17.394531 7.25 -20.484375 L 7.964844 -20.484375 C 12.128906 -20.484375 12.90625 -18.078125 12.90625 -15.800781 C 12.90625 -13.199219 11.867188 -11.085938 8.160156 -11.085938 C 7.769531 -11.085938 7.378906 -11.085938 6.925781 -11.152344 Z M 6.925781 -11.152344 "/></g></g></g><g fill="#00ffff" fill-opacity="1"><g transform="translate(59.116766, 222.584796)"><g><path d="M 16.777344 -5.429688 C 15.605469 -5.789062 15.25 -4.097656 15.3125 -2.144531 C 14.371094 -1.917969 12.09375 -1.59375 6.730469 -1.5625 C 6.957031 -2.40625 7.085938 -3.578125 7.085938 -5.167969 C 7.085938 -7.707031 6.988281 -9.589844 6.988281 -11.542969 C 6.988281 -14.207031 7.054688 -17.75 7.25 -20.027344 L 9.65625 -20.546875 L 9.265625 -21.523438 L 0.976562 -21.523438 C 0.519531 -20.839844 2.015625 -20.351562 3.640625 -20.058594 C 3.804688 -17.003906 3.902344 -13.914062 3.902344 -10.792969 C 3.902344 -3.738281 3.867188 -1.039062 0.941406 -0.714844 L 1.203125 0 L 16.972656 0 Z M 16.777344 -5.429688 "/></g></g></g><g fill="#00ffff" fill-opacity="1"><g transform="translate(77.711561, 222.584796)"><g><path d="M 19.117188 -1.269531 C 16.515625 -8.0625 14.4375 -15.054688 12.808594 -21.976562 C 11.605469 -21.75 10.304688 -21.328125 9.589844 -20.808594 C 8.550781 -16.453125 6.113281 -9.949219 3.835938 -4.550781 C 2.535156 -1.496094 2.179688 -1.300781 0.164062 -0.84375 L 0.421875 0 L 6.925781 0 C 7.445312 -0.617188 6.144531 -1.105469 4.648438 -1.367188 C 5.234375 -3.480469 5.917969 -5.59375 6.664062 -7.738281 C 7.867188 -7.835938 9.007812 -7.902344 10.175781 -7.902344 C 11.3125 -7.902344 12.453125 -7.835938 13.6875 -7.738281 C 14.371094 -5.265625 14.824219 -3.21875 14.824219 -2.375 C 14.824219 -1.429688 14.242188 -1.203125 12.550781 -0.84375 L 12.808594 0 L 21.457031 0 C 21.945312 -0.617188 20.546875 -1.007812 19.117188 -1.269531 Z M 10.175781 -9.136719 C 9.167969 -9.136719 8.191406 -9.167969 7.183594 -9.234375 L 9.527344 -15.832031 C 9.917969 -16.9375 10.207031 -17.816406 10.304688 -18.757812 C 11.21875 -16.09375 12.355469 -12.453125 13.265625 -9.234375 C 12.191406 -9.167969 11.183594 -9.136719 10.175781 -9.136719 Z M 10.175781 -9.136719 "/></g></g></g><g fill="#00ffff" fill-opacity="1"><g transform="translate(100.434846, 222.584796)"><g><path d="M 21.394531 -21.523438 L 14.304688 -21.523438 L 13.980469 -20.742188 L 14.921875 -20.515625 C 16.125 -20.125 16.386719 -19.574219 16.027344 -18.175781 L 13.296875 -8.03125 C 12.648438 -5.558594 12.191406 -3.738281 11.964844 -2.601562 C 10.078125 -7.867188 8.289062 -14.207031 6.957031 -19.929688 C 8.289062 -20.191406 10.175781 -20.742188 9.65625 -21.523438 L 0.617188 -21.523438 L 0.292969 -20.742188 C 2.667969 -20.222656 3.25 -19.769531 3.707031 -18.175781 C 4.84375 -14.046875 7.804688 -4.910156 9.070312 0.226562 C 10.339844 0.226562 11.835938 -0.164062 12.746094 -0.488281 C 13.851562 -5.167969 16.484375 -14.371094 18.53125 -19.863281 C 19.800781 -20.125 21.816406 -20.679688 21.394531 -21.523438 Z M 21.394531 -21.523438 "/></g></g></g><g fill="#00ffff" fill-opacity="1"><g transform="translate(122.930579, 222.584796)"><g><path d="M 19.117188 -1.269531 C 16.515625 -8.0625 14.4375 -15.054688 12.808594 -21.976562 C 11.605469 -21.75 10.304688 -21.328125 9.589844 -20.808594 C 8.550781 -16.453125 6.113281 -9.949219 3.835938 -4.550781 C 2.535156 -1.496094 2.179688 -1.300781 0.164062 -0.84375 L 0.421875 0 L 6.925781 0 C 7.445312 -0.617188 6.144531 -1.105469 4.648438 -1.367188 C 5.234375 -3.480469 5.917969 -5.59375 6.664062 -7.738281 C 7.867188 -7.835938 9.007812 -7.902344 10.175781 -7.902344 C 11.3125 -7.902344 12.453125 -7.835938 13.6875 -7.738281 C 14.371094 -5.265625 14.824219 -3.21875 14.824219 -2.375 C 14.824219 -1.429688 14.242188 -1.203125 12.550781 -0.84375 L 12.808594 0 L 21.457031 0 C 21.945312 -0.617188 20.546875 -1.007812 19.117188 -1.269531 Z M 10.175781 -9.136719 C 9.167969 -9.136719 8.191406 -9.167969 7.183594 -9.234375 L 9.527344 -15.832031 C 9.917969 -16.9375 10.207031 -17.816406 10.304688 -18.757812 C 11.21875 -16.09375 12.355469 -12.453125 13.265625 -9.234375 C 12.191406 -9.167969 11.183594 -9.136719 10.175781 -9.136719 Z M 10.175781 -9.136719 "/></g></g></g><g fill="#00ffff" fill-opacity="1"><g transform="translate(145.653863, 222.584796)"><g><path d="M 6.761719 -21.523438 L 1.039062 -21.523438 C 0.457031 -20.679688 1.984375 -20.351562 3.769531 -20.253906 C 3.933594 -17.101562 4.03125 -13.980469 4.03125 -10.792969 C 4.03125 -3.738281 3.835938 -1.039062 0.910156 -0.714844 L 1.171875 0 L 3.023438 0 C 4.324219 0 6.078125 0.164062 8.582031 0.164062 C 15.605469 0.164062 20.222656 -3.347656 20.222656 -10.792969 C 20.222656 -19.3125 15.054688 -21.523438 6.761719 -21.523438 Z M 14.304688 -2.472656 C 13.136719 -1.917969 11.769531 -1.625 10.144531 -1.625 C 9.167969 -1.625 8.128906 -1.691406 6.925781 -1.886719 C 7.121094 -2.730469 7.21875 -3.835938 7.21875 -5.398438 C 7.21875 -7.707031 7.121094 -9.589844 7.121094 -11.542969 C 7.121094 -14.304688 7.21875 -18.042969 7.414062 -20.320312 C 7.769531 -20.351562 8.160156 -20.351562 8.519531 -20.351562 C 13.621094 -20.351562 16.777344 -17.460938 16.777344 -10.371094 C 16.777344 -6.601562 15.832031 -4.03125 14.304688 -2.472656 Z M 14.304688 -2.472656 "/></g></g></g><g fill="#00ffff" fill-opacity="1"><g transform="translate(168.539693, 222.584796)"><g><path d="M 16.839844 -4.78125 C 15.898438 -5.167969 15.445312 -3.769531 15.445312 -2.113281 C 14.5 -1.917969 12.226562 -1.59375 6.761719 -1.5625 C 6.988281 -2.40625 7.121094 -3.578125 7.121094 -5.167969 C 7.121094 -6.988281 7.054688 -8.484375 7.054688 -9.917969 L 13.234375 -9.917969 C 13.816406 -10.535156 14.144531 -11.378906 14.144531 -12.03125 C 11.835938 -11.574219 9.429688 -11.378906 7.023438 -11.347656 L 7.023438 -11.542969 C 7.023438 -14.207031 7.085938 -17.75 7.28125 -20.058594 L 8 -20.058594 C 10.761719 -20.058594 12.484375 -19.832031 14.207031 -19.539062 C 14.304688 -18.175781 14.792969 -16.222656 15.734375 -16.742188 L 15.964844 -21.523438 L 1.007812 -21.523438 C 0.324219 -20.808594 1.917969 -20.351562 3.675781 -20.15625 C 3.835938 -17.070312 3.933594 -13.949219 3.933594 -10.792969 C 3.933594 -3.738281 3.867188 -1.039062 0.910156 -0.714844 L 1.171875 0 L 17.035156 0 Z M 16.839844 -4.78125 "/></g></g></g><g fill="#00ffff" fill-opacity="1"><g transform="translate(187.97969, 222.584796)"><g><path d="M 20.320312 -0.714844 C 18.953125 -0.8125 17.363281 -2.859375 15.636719 -5.332031 C 14.46875 -6.988281 13.621094 -8.875 12.582031 -10.792969 C 15.25 -11.898438 16.222656 -13.949219 16.222656 -16.125 C 16.222656 -18.664062 14.890625 -21.523438 8.550781 -21.523438 L 1.007812 -21.523438 C 0.488281 -20.679688 1.886719 -20.351562 3.707031 -20.253906 C 3.835938 -17.003906 3.933594 -13.851562 3.933594 -10.597656 C 3.933594 -2.992188 3.707031 -1.171875 0.878906 -0.714844 L 1.136719 0 L 9.753906 0 C 10.273438 -0.84375 8.8125 -1.332031 7.25 -1.59375 C 7.023438 -4.390625 6.925781 -7.183594 6.925781 -9.949219 L 7.574219 -9.949219 C 8.289062 -9.949219 8.941406 -9.980469 9.527344 -10.046875 C 10.4375 -8.128906 11.28125 -6.371094 12.0625 -4.941406 C 14.078125 -1.722656 15.734375 0.292969 18.371094 0.292969 C 19.117188 0.292969 20.09375 0.128906 20.546875 -0.0664062 Z M 6.925781 -11.152344 C 6.957031 -14.242188 7.054688 -17.394531 7.25 -20.484375 L 7.964844 -20.484375 C 12.128906 -20.484375 12.90625 -18.078125 12.90625 -15.800781 C 12.90625 -13.199219 11.867188 -11.085938 8.160156 -11.085938 C 7.769531 -11.085938 7.378906 -11.085938 6.925781 -11.152344 Z M 6.925781 -11.152344 "/></g></g></g><g fill="#00ffff" fill-opacity="1"><g transform="translate(209.500189, 222.584796)"><g><path d="M 10.890625 0.457031 C 16.386719 0.457031 21.035156 -3.089844 21.035156 -11.152344 C 21.035156 -17.980469 17.558594 -22.011719 11.933594 -22.011719 C 5.65625 -22.011719 1.722656 -17.167969 1.722656 -10.113281 C 1.722656 -3.089844 5.398438 0.457031 10.890625 0.457031 Z M 12.582031 -1.136719 C 7.804688 -1.136719 5.234375 -5.460938 5.234375 -11.507812 C 5.234375 -14.957031 6.078125 -18.207031 7.707031 -19.863281 C 8.582031 -20.351562 9.363281 -20.546875 10.304688 -20.546875 C 15.183594 -20.546875 17.6875 -15.378906 17.6875 -10.144531 C 17.6875 -6.4375 16.453125 -3.089844 15.539062 -1.886719 C 14.628906 -1.269531 13.394531 -1.136719 12.582031 -1.136719 Z M 12.582031 -1.136719 "/></g></g></g><g fill="#00ffff" fill-opacity="1"><g transform="translate(233.198704, 222.584796)"><g/></g></g><g fill="#00ffff" fill-opacity="1"><g transform="translate(238.920395, 222.584796)"><g><path d="M 7.738281 0.550781 C 12.484375 0.550781 15.28125 -2.308594 15.28125 -5.789062 C 15.28125 -8.617188 13.460938 -11.152344 9.332031 -12.746094 C 6.828125 -13.753906 5.234375 -14.988281 5.234375 -17.363281 C 5.234375 -19.214844 6.242188 -20.125 7.25 -20.582031 C 10.046875 -20.582031 12.03125 -19.34375 13.101562 -16.644531 C 14.109375 -18.109375 14.566406 -19.085938 14.726562 -20.351562 C 13.265625 -21.425781 11.378906 -21.976562 9.332031 -21.976562 C 5.332031 -21.976562 2.375 -19.800781 2.375 -16.417969 C 2.375 -13.6875 4.195312 -11.347656 7.769531 -9.820312 C 11.445312 -8.226562 12.226562 -6.371094 12.226562 -4.648438 C 12.226562 -1.820312 10.113281 -1.171875 8.453125 -1.171875 C 5.527344 -1.171875 3.707031 -3.21875 2.308594 -6.273438 L 1.691406 -5.980469 C 1.367188 -4.585938 1.464844 -2.210938 1.691406 -1.464844 C 3.1875 0 5.625 0.550781 7.738281 0.550781 Z M 7.738281 0.550781 "/></g></g></g><g fill="#00ffff" fill-opacity="1"><g transform="translate(256.539946, 222.584796)"><g><path d="M 0.292969 -21.523438 L 0.292969 -16.710938 C 1.398438 -16.320312 1.949219 -18.566406 2.015625 -19.800781 C 3.609375 -19.960938 5.625 -20.09375 7.769531 -20.125 C 7.902344 -17.101562 8 -14.046875 8 -11.023438 C 8 -7.835938 7.902344 -4.648438 7.738281 -1.464844 L 4.84375 -1.007812 L 5.203125 0 L 14.402344 0 C 15.117188 -0.8125 13.296875 -1.269531 11.410156 -1.527344 C 11.25 -4.617188 11.183594 -7.707031 11.183594 -10.792969 C 11.183594 -13.914062 11.28125 -17.035156 11.410156 -20.125 C 13.523438 -20.09375 15.476562 -19.960938 16.972656 -19.800781 C 17.070312 -18.628906 17.558594 -16.320312 18.695312 -16.710938 L 18.695312 -21.523438 Z M 0.292969 -21.523438 "/></g></g></g><g fill="#00ffff" fill-opacity="1"><g transform="translate(276.370039, 222.584796)"><g><path d="M 19.117188 -1.269531 C 16.515625 -8.0625 14.4375 -15.054688 12.808594 -21.976562 C 11.605469 -21.75 10.304688 -21.328125 9.589844 -20.808594 C 8.550781 -16.453125 6.113281 -9.949219 3.835938 -4.550781 C 2.535156 -1.496094 2.179688 -1.300781 0.164062 -0.84375 L 0.421875 0 L 6.925781 0 C 7.445312 -0.617188 6.144531 -1.105469 4.648438 -1.367188 C 5.234375 -3.480469 5.917969 -5.59375 6.664062 -7.738281 C 7.867188 -7.835938 9.007812 -7.902344 10.175781 -7.902344 C 11.3125 -7.902344 12.453125 -7.835938 13.6875 -7.738281 C 14.371094 -5.265625 14.824219 -3.21875 14.824219 -2.375 C 14.824219 -1.429688 14.242188 -1.203125 12.550781 -0.84375 L 12.808594 0 L 21.457031 0 C 21.945312 -0.617188 20.546875 -1.007812 19.117188 -1.269531 Z M 10.175781 -9.136719 C 9.167969 -9.136719 8.191406 -9.167969 7.183594 -9.234375 L 9.527344 -15.832031 C 9.917969 -16.9375 10.207031 -17.816406 10.304688 -18.757812 C 11.21875 -16.09375 12.355469 -12.453125 13.265625 -9.234375 C 12.191406 -9.167969 11.183594 -9.136719 10.175781 -9.136719 Z M 10.175781 -9.136719 "/></g></g></g><g fill="#00ffff" fill-opacity="1"><g transform="translate(299.093334, 222.584796)"><g><path d="M 20.320312 -0.714844 C 18.953125 -0.8125 17.363281 -2.859375 15.636719 -5.332031 C 14.46875 -6.988281 13.621094 -8.875 12.582031 -10.792969 C 15.25 -11.898438 16.222656 -13.949219 16.222656 -16.125 C 16.222656 -18.664062 14.890625 -21.523438 8.550781 -21.523438 L 1.007812 -21.523438 C 0.488281 -20.679688 1.886719 -20.351562 3.707031 -20.253906 C 3.835938 -17.003906 3.933594 -13.851562 3.933594 -10.597656 C 3.933594 -2.992188 3.707031 -1.171875 0.878906 -0.714844 L 1.136719 0 L 9.753906 0 C 10.273438 -0.84375 8.8125 -1.332031 7.25 -1.59375 C 7.023438 -4.390625 6.925781 -7.183594 6.925781 -9.949219 L 7.574219 -9.949219 C 8.289062 -9.949219 8.941406 -9.980469 9.527344 -10.046875 C 10.4375 -8.128906 11.28125 -6.371094 12.0625 -4.941406 C 14.078125 -1.722656 15.734375 0.292969 18.371094 0.292969 C 19.117188 0.292969 20.09375 0.128906 20.546875 -0.0664062 Z M 6.925781 -11.152344 C 6.957031 -14.242188 7.054688 -17.394531 7.25 -20.484375 L 7.964844 -20.484375 C 12.128906 -20.484375 12.90625 -18.078125 12.90625 -15.800781 C 12.90625 -13.199219 11.867188 -11.085938 8.160156 -11.085938 C 7.769531 -11.085938 7.378906 -11.085938 6.925781 -11.152344 Z M 6.925781 -11.152344 "/></g></g></g><g fill="#000000" fill-opacity="1"><g transform="translate(59.726511, 222.584796)"><g><path d="M 16.777344 -5.429688 C 15.605469 -5.789062 15.25 -4.097656 15.3125 -2.144531 C 14.371094 -1.917969 12.09375 -1.59375 6.730469 -1.5625 C 6.957031 -2.40625 7.085938 -3.578125 7.085938 -5.167969 C 7.085938 -7.707031 6.988281 -9.589844 6.988281 -11.542969 C 6.988281 -14.207031 7.054688 -17.75 7.25 -20.027344 L 9.65625 -20.546875 L 9.265625 -21.523438 L 0.976562 -21.523438 C 0.519531 -20.839844 2.015625 -20.351562 3.640625 -20.058594 C 3.804688 -17.003906 3.902344 -13.914062 3.902344 -10.792969 C 3.902344 -3.738281 3.867188 -1.039062 0.941406 -0.714844 L 1.203125 0 L 16.972656 0 Z M 16.777344 -5.429688 "/></g></g></g><g fill="#000000" fill-opacity="1"><g transform="translate(78.321306, 222.584796)"><g><path d="M 19.117188 -1.269531 C 16.515625 -8.0625 14.4375 -15.054688 12.808594 -21.976562 C 11.605469 -21.75 10.304688 -21.328125 9.589844 -20.808594 C 8.550781 -16.453125 6.113281 -9.949219 3.835938 -4.550781 C 2.535156 -1.496094 2.179688 -1.300781 0.164062 -0.84375 L 0.421875 0 L 6.925781 0 C 7.445312 -0.617188 6.144531 -1.105469 4.648438 -1.367188 C 5.234375 -3.480469 5.917969 -5.59375 6.664062 -7.738281 C 7.867188 -7.835938 9.007812 -7.902344 10.175781 -7.902344 C 11.3125 -7.902344 12.453125 -7.835938 13.6875 -7.738281 C 14.371094 -5.265625 14.824219 -3.21875 14.824219 -2.375 C 14.824219 -1.429688 14.242188 -1.203125 12.550781 -0.84375 L 12.808594 0 L 21.457031 0 C 21.945312 -0.617188 20.546875 -1.007812 19.117188 -1.269531 Z M 10.175781 -9.136719 C 9.167969 -9.136719 8.191406 -9.167969 7.183594 -9.234375 L 9.527344 -15.832031 C 9.917969 -16.9375 10.207031 -17.816406 10.304688 -18.757812 C 11.21875 -16.09375 12.355469 -12.453125 13.265625 -9.234375 C 12.191406 -9.167969 11.183594 -9.136719 10.175781 -9.136719 Z M 10.175781 -9.136719 "/></g></g></g><g fill="#000000" fill-opacity="1"><g transform="translate(101.044591, 222.584796)"><g><path d="M 21.394531 -21.523438 L 14.304688 -21.523438 L 13.980469 -20.742188 L 14.921875 -20.515625 C 16.125 -20.125 16.386719 -19.574219 16.027344 -18.175781 L 13.296875 -8.03125 C 12.648438 -5.558594 12.191406 -3.738281 11.964844 -2.601562 C 10.078125 -7.867188 8.289062 -14.207031 6.957031 -19.929688 C 8.289062 -20.191406 10.175781 -20.742188 9.65625 -21.523438 L 0.617188 -21.523438 L 0.292969 -20.742188 C 2.667969 -20.222656 3.25 -19.769531 3.707031 -18.175781 C 4.84375 -14.046875 7.804688 -4.910156 9.070312 0.226562 C 10.339844 0.226562 11.835938 -0.164062 12.746094 -0.488281 C 13.851562 -5.167969 16.484375 -14.371094 18.53125 -19.863281 C 19.800781 -20.125 21.816406 -20.679688 21.394531 -21.523438 Z M 21.394531 -21.523438 "/></g></g></g><g fill="#000000" fill-opacity="1"><g transform="translate(123.540324, 222.584796)"><g><path d="M 19.117188 -1.269531 C 16.515625 -8.0625 14.4375 -15.054688 12.808594 -21.976562 C 11.605469 -21.75 10.304688 -21.328125 9.589844 -20.808594 C 8.550781 -16.453125 6.113281 -9.949219 3.835938 -4.550781 C 2.535156 -1.496094 2.179688 -1.300781 0.164062 -0.84375 L 0.421875 0 L 6.925781 0 C 7.445312 -0.617188 6.144531 -1.105469 4.648438 -1.367188 C 5.234375 -3.480469 5.917969 -5.59375 6.664062 -7.738281 C 7.867188 -7.835938 9.007812 -7.902344 10.175781 -7.902344 C 11.3125 -7.902344 12.453125 -7.835938 13.6875 -7.738281 C 14.371094 -5.265625 14.824219 -3.21875 14.824219 -2.375 C 14.824219 -1.429688 14.242188 -1.203125 12.550781 -0.84375 L 12.808594 0 L 21.457031 0 C 21.945312 -0.617188 20.546875 -1.007812 19.117188 -1.269531 Z M 10.175781 -9.136719 C 9.167969 -9.136719 8.191406 -9.167969 7.183594 -9.234375 L 9.527344 -15.832031 C 9.917969 -16.9375 10.207031 -17.816406 10.304688 -18.757812 C 11.21875 -16.09375 12.355469 -12.453125 13.265625 -9.234375 C 12.191406 -9.167969 11.183594 -9.136719 10.175781 -9.136719 Z M 10.175781 -9.136719 "/></g></g></g><g fill="#000000" fill-opacity="1"><g transform="translate(146.263608, 222.584796)"><g><path d="M 6.761719 -21.523438 L 1.039062 -21.523438 C 0.457031 -20.679688 1.984375 -20.351562 3.769531 -20.253906 C 3.933594 -17.101562 4.03125 -13.980469 4.03125 -10.792969 C 4.03125 -3.738281 3.835938 -1.039062 0.910156 -0.714844 L 1.171875 0 L 3.023438 0 C 4.324219 0 6.078125 0.164062 8.582031 0.164062 C 15.605469 0.164062 20.222656 -3.347656 20.222656 -10.792969 C 20.222656 -19.3125 15.054688 -21.523438 6.761719 -21.523438 Z M 14.304688 -2.472656 C 13.136719 -1.917969 11.769531 -1.625 10.144531 -1.625 C 9.167969 -1.625 8.128906 -1.691406 6.925781 -1.886719 C 7.121094 -2.730469 7.21875 -3.835938 7.21875 -5.398438 C 7.21875 -7.707031 7.121094 -9.589844 7.121094 -11.542969 C 7.121094 -14.304688 7.21875 -18.042969 7.414062 -20.320312 C 7.769531 -20.351562 8.160156 -20.351562 8.519531 -20.351562 C 13.621094 -20.351562 16.777344 -17.460938 16.777344 -10.371094 C 16.777344 -6.601562 15.832031 -4.03125 14.304688 -2.472656 Z M 14.304688 -2.472656 "/></g></g></g><g fill="#000000" fill-opacity="1"><g transform="translate(169.149438, 222.584796)"><g><path d="M 16.839844 -4.78125 C 15.898438 -5.167969 15.445312 -3.769531 15.445312 -2.113281 C 14.5 -1.917969 12.226562 -1.59375 6.761719 -1.5625 C 6.988281 -2.40625 7.121094 -3.578125 7.121094 -5.167969 C 7.121094 -6.988281 7.054688 -8.484375 7.054688 -9.917969 L 13.234375 -9.917969 C 13.816406 -10.535156 14.144531 -11.378906 14.144531 -12.03125 C 11.835938 -11.574219 9.429688 -11.378906 7.023438 -11.347656 L 7.023438 -11.542969 C 7.023438 -14.207031 7.085938 -17.75 7.28125 -20.058594 L 8 -20.058594 C 10.761719 -20.058594 12.484375 -19.832031 14.207031 -19.539062 C 14.304688 -18.175781 14.792969 -16.222656 15.734375 -16.742188 L 15.964844 -21.523438 L 1.007812 -21.523438 C 0.324219 -20.808594 1.917969 -20.351562 3.675781 -20.15625 C 3.835938 -17.070312 3.933594 -13.949219 3.933594 -10.792969 C 3.933594 -3.738281 3.867188 -1.039062 0.910156 -0.714844 L 1.171875 0 L 17.035156 0 Z M 16.839844 -4.78125 "/></g></g></g><g fill="#000000" fill-opacity="1"><g transform="translate(188.589435, 222.584796)"><g><path d="M 20.320312 -0.714844 C 18.953125 -0.8125 17.363281 -2.859375 15.636719 -5.332031 C 14.46875 -6.988281 13.621094 -8.875 12.582031 -10.792969 C 15.25 -11.898438 16.222656 -13.949219 16.222656 -16.125 C 16.222656 -18.664062 14.890625 -21.523438 8.550781 -21.523438 L 1.007812 -21.523438 C 0.488281 -20.679688 1.886719 -20.351562 3.707031 -20.253906 C 3.835938 -17.003906 3.933594 -13.851562 3.933594 -10.597656 C 3.933594 -2.992188 3.707031 -1.171875 0.878906 -0.714844 L 1.136719 0 L 9.753906 0 C 10.273438 -0.84375 8.8125 -1.332031 7.25 -1.59375 C 7.023438 -4.390625 6.925781 -7.183594 6.925781 -9.949219 L 7.574219 -9.949219 C 8.289062 -9.949219 8.941406 -9.980469 9.527344 -10.046875 C 10.4375 -8.128906 11.28125 -6.371094 12.0625 -4.941406 C 14.078125 -1.722656 15.734375 0.292969 18.371094 0.292969 C 19.117188 0.292969 20.09375 0.128906 20.546875 -0.0664062 Z M 6.925781 -11.152344 C 6.957031 -14.242188 7.054688 -17.394531 7.25 -20.484375 L 7.964844 -20.484375 C 12.128906 -20.484375 12.90625 -18.078125 12.90625 -15.800781 C 12.90625 -13.199219 11.867188 -11.085938 8.160156 -11.085938 C 7.769531 -11.085938 7.378906 -11.085938 6.925781 -11.152344 Z M 6.925781 -11.152344 "/></g></g></g><g fill="#000000" fill-opacity="1"><g transform="translate(210.109934, 222.584796)"><g><path d="M 10.890625 0.457031 C 16.386719 0.457031 21.035156 -3.089844 21.035156 -11.152344 C 21.035156 -17.980469 17.558594 -22.011719 11.933594 -22.011719 C 5.65625 -22.011719 1.722656 -17.167969 1.722656 -10.113281 C 1.722656 -3.089844 5.398438 0.457031 10.890625 0.457031 Z M 12.582031 -1.136719 C 7.804688 -1.136719 5.234375 -5.460938 5.234375 -11.507812 C 5.234375 -14.957031 6.078125 -18.207031 7.707031 -19.863281 C 8.582031 -20.351562 9.363281 -20.546875 10.304688 -20.546875 C 15.183594 -20.546875 17.6875 -15.378906 17.6875 -10.144531 C 17.6875 -6.4375 16.453125 -3.089844 15.539062 -1.886719 C 14.628906 -1.269531 13.394531 -1.136719 12.582031 -1.136719 Z M 12.582031 -1.136719 "/></g></g></g><g fill="#000000" fill-opacity="1"><g transform="translate(233.808449, 222.584796)"><g/></g></g><g fill="#000000" fill-opacity="1"><g transform="translate(239.530139, 222.584796)"><g><path d="M 7.738281 0.550781 C 12.484375 0.550781 15.28125 -2.308594 15.28125 -5.789062 C 15.28125 -8.617188 13.460938 -11.152344 9.332031 -12.746094 C 6.828125 -13.753906 5.234375 -14.988281 5.234375 -17.363281 C 5.234375 -19.214844 6.242188 -20.125 7.25 -20.582031 C 10.046875 -20.582031 12.03125 -19.34375 13.101562 -16.644531 C 14.109375 -18.109375 14.566406 -19.085938 14.726562 -20.351562 C 13.265625 -21.425781 11.378906 -21.976562 9.332031 -21.976562 C 5.332031 -21.976562 2.375 -19.800781 2.375 -16.417969 C 2.375 -13.6875 4.195312 -11.347656 7.769531 -9.820312 C 11.445312 -8.226562 12.226562 -6.371094 12.226562 -4.648438 C 12.226562 -1.820312 10.113281 -1.171875 8.453125 -1.171875 C 5.527344 -1.171875 3.707031 -3.21875 2.308594 -6.273438 L 1.691406 -5.980469 C 1.367188 -4.585938 1.464844 -2.210938 1.691406 -1.464844 C 3.1875 0 5.625 0.550781 7.738281 0.550781 Z M 7.738281 0.550781 "/></g></g></g><g fill="#000000" fill-opacity="1"><g transform="translate(257.149691, 222.584796)"><g><path d="M 0.292969 -21.523438 L 0.292969 -16.710938 C 1.398438 -16.320312 1.949219 -18.566406 2.015625 -19.800781 C 3.609375 -19.960938 5.625 -20.09375 7.769531 -20.125 C 7.902344 -17.101562 8 -14.046875 8 -11.023438 C 8 -7.835938 7.902344 -4.648438 7.738281 -1.464844 L 4.84375 -1.007812 L 5.203125 0 L 14.402344 0 C 15.117188 -0.8125 13.296875 -1.269531 11.410156 -1.527344 C 11.25 -4.617188 11.183594 -7.707031 11.183594 -10.792969 C 11.183594 -13.914062 11.28125 -17.035156 11.410156 -20.125 C 13.523438 -20.09375 15.476562 -19.960938 16.972656 -19.800781 C 17.070312 -18.628906 17.558594 -16.320312 18.695312 -16.710938 L 18.695312 -21.523438 Z M 0.292969 -21.523438 "/></g></g></g><g fill="#000000" fill-opacity="1"><g transform="translate(276.979783, 222.584796)"><g><path d="M 19.117188 -1.269531 C 16.515625 -8.0625 14.4375 -15.054688 12.808594 -21.976562 C 11.605469 -21.75 10.304688 -21.328125 9.589844 -20.808594 C 8.550781 -16.453125 6.113281 -9.949219 3.835938 -4.550781 C 2.535156 -1.496094 2.179688 -1.300781 0.164062 -0.84375 L 0.421875 0 L 6.925781 0 C 7.445312 -0.617188 6.144531 -1.105469 4.648438 -1.367188 C 5.234375 -3.480469 5.917969 -5.59375 6.664062 -7.738281 C 7.867188 -7.835938 9.007812 -7.902344 10.175781 -7.902344 C 11.3125 -7.902344 12.453125 -7.835938 13.6875 -7.738281 C 14.371094 -5.265625 14.824219 -3.21875 14.824219 -2.375 C 14.824219 -1.429688 14.242188 -1.203125 12.550781 -0.84375 L 12.808594 0 L 21.457031 0 C 21.945312 -0.617188 20.546875 -1.007812 19.117188 -1.269531 Z M 10.175781 -9.136719 C 9.167969 -9.136719 8.191406 -9.167969 7.183594 -9.234375 L 9.527344 -15.832031 C 9.917969 -16.9375 10.207031 -17.816406 10.304688 -18.757812 C 11.21875 -16.09375 12.355469 -12.453125 13.265625 -9.234375 C 12.191406 -9.167969 11.183594 -9.136719 10.175781 -9.136719 Z M 10.175781 -9.136719 "/></g></g></g><g fill="#000000" fill-opacity="1"><g transform="translate(299.703079, 222.584796)"><g><path d="M 20.320312 -0.714844 C 18.953125 -0.8125 17.363281 -2.859375 15.636719 -5.332031 C 14.46875 -6.988281 13.621094 -8.875 12.582031 -10.792969 C 15.25 -11.898438 16.222656 -13.949219 16.222656 -16.125 C 16.222656 -18.664062 14.890625 -21.523438 8.550781 -21.523438 L 1.007812 -21.523438 C 0.488281 -20.679688 1.886719 -20.351562 3.707031 -20.253906 C 3.835938 -17.003906 3.933594 -13.851562 3.933594 -10.597656 C 3.933594 -2.992188 3.707031 -1.171875 0.878906 -0.714844 L 1.136719 0 L 9.753906 0 C 10.273438 -0.84375 8.8125 -1.332031 7.25 -1.59375 C 7.023438 -4.390625 6.925781 -7.183594 6.925781 -9.949219 L 7.574219 -9.949219 C 8.289062 -9.949219 8.941406 -9.980469 9.527344 -10.046875 C 10.4375 -8.128906 11.28125 -6.371094 12.0625 -4.941406 C 14.078125 -1.722656 15.734375 0.292969 18.371094 0.292969 C 19.117188 0.292969 20.09375 0.128906 20.546875 -0.0664062 Z M 6.925781 -11.152344 C 6.957031 -14.242188 7.054688 -17.394531 7.25 -20.484375 L 7.964844 -20.484375 C 12.128906 -20.484375 12.90625 -18.078125 12.90625 -15.800781 C 12.90625 -13.199219 11.867188 -11.085938 8.160156 -11.085938 C 7.769531 -11.085938 7.378906 -11.085938 6.925781 -11.152344 Z M 6.925781 -11.152344 "/></g></g></g></svg>